<mxfile host="app.diagrams.net" agent="Mozilla/5.0 (Windows NT 10.0; Win64; x64) AppleWebKit/537.36 (KHTML, like Gecko) Chrome/98.0.4758.139 Safari/537.36" version="25.0.1">
  <diagram name="第 1 页" id="4lezpPqJ403xujPUZDA0">
    <mxGraphModel dx="841" dy="512" grid="1" gridSize="1" guides="1" tooltips="1" connect="1" arrows="1" fold="1" page="1" pageScale="1" pageWidth="1169" pageHeight="827" math="0" shadow="0">
      <root>
        <mxCell id="0" />
        <mxCell id="1" parent="0" />
        <mxCell id="HMoE_AIVwohIHGqLsTAF-2" value="" style="endArrow=classic;html=1;rounded=1;entryX=-0.017;entryY=0.501;entryDx=0;entryDy=0;entryPerimeter=0;" parent="1" target="HMoE_AIVwohIHGqLsTAF-29" edge="1">
          <mxGeometry width="50" height="50" relative="1" as="geometry">
            <mxPoint x="15" y="85" as="sourcePoint" />
            <mxPoint x="60" y="84.93" as="targetPoint" />
          </mxGeometry>
        </mxCell>
        <mxCell id="HMoE_AIVwohIHGqLsTAF-7" value="比例" style="rounded=1;whiteSpace=wrap;html=1;shadow=0;glass=0;fillColor=#dae8fc;strokeColor=#6c8ebf;" parent="1" vertex="1">
          <mxGeometry x="208" y="12" width="100" height="33" as="geometry" />
        </mxCell>
        <mxCell id="HMoE_AIVwohIHGqLsTAF-29" value="" style="verticalLabelPosition=bottom;verticalAlign=top;html=1;shape=mxgraph.flowchart.or;rounded=1;fillColor=#fff2cc;strokeColor=#d6b656;" parent="1" vertex="1">
          <mxGeometry x="60" y="56.5" width="60" height="57" as="geometry" />
        </mxCell>
        <mxCell id="HMoE_AIVwohIHGqLsTAF-30" value="积分" style="rounded=1;whiteSpace=wrap;html=1;fillColor=#dae8fc;strokeColor=#6c8ebf;" parent="1" vertex="1">
          <mxGeometry x="208" y="69" width="100" height="33" as="geometry" />
        </mxCell>
        <mxCell id="HMoE_AIVwohIHGqLsTAF-31" value="微分" style="rounded=1;whiteSpace=wrap;html=1;fillColor=#dae8fc;strokeColor=#6c8ebf;" parent="1" vertex="1">
          <mxGeometry x="208" y="125" width="100" height="33" as="geometry" />
        </mxCell>
        <mxCell id="HMoE_AIVwohIHGqLsTAF-33" value="" style="verticalLabelPosition=bottom;verticalAlign=top;html=1;shape=mxgraph.flowchart.or;rounded=1;fillColor=#fff2cc;strokeColor=#d6b656;" parent="1" vertex="1">
          <mxGeometry x="328" y="56.5" width="60" height="57" as="geometry" />
        </mxCell>
        <mxCell id="HMoE_AIVwohIHGqLsTAF-40" value="&lt;font style=&quot;font-size: 24px;&quot;&gt;+&lt;/font&gt;" style="text;strokeColor=none;align=center;fillColor=none;html=1;verticalAlign=middle;whiteSpace=wrap;rounded=0;" parent="1" vertex="1">
          <mxGeometry x="40" y="58" width="16" height="30" as="geometry" />
        </mxCell>
        <mxCell id="HMoE_AIVwohIHGqLsTAF-41" value="&lt;span style=&quot;font-size: 18px; white-space: nowrap; background-color: rgb(255, 255, 255);&quot;&gt;r(t)&lt;/span&gt;" style="text;strokeColor=none;align=center;fillColor=none;html=1;verticalAlign=middle;whiteSpace=wrap;rounded=0;" parent="1" vertex="1">
          <mxGeometry x="15" y="56.5" width="19" height="30" as="geometry" />
        </mxCell>
        <mxCell id="HMoE_AIVwohIHGqLsTAF-50" value="" style="endArrow=classic;html=1;rounded=1;strokeColor=default;align=center;verticalAlign=middle;fontFamily=Helvetica;fontSize=11;fontColor=default;labelBackgroundColor=default;exitX=1;exitY=0.5;exitDx=0;exitDy=0;exitPerimeter=0;targetPerimeterSpacing=0;entryX=-0.003;entryY=0.489;entryDx=0;entryDy=0;entryPerimeter=0;" parent="1" source="HMoE_AIVwohIHGqLsTAF-29" target="HMoE_AIVwohIHGqLsTAF-30" edge="1">
          <mxGeometry width="50" height="50" relative="1" as="geometry">
            <mxPoint x="150" y="121" as="sourcePoint" />
            <mxPoint x="200" y="71" as="targetPoint" />
          </mxGeometry>
        </mxCell>
        <mxCell id="HMoE_AIVwohIHGqLsTAF-51" value="" style="endArrow=classic;html=1;rounded=1;strokeColor=default;align=center;verticalAlign=middle;fontFamily=Helvetica;fontSize=11;fontColor=default;labelBackgroundColor=default;entryX=-0.001;entryY=0.516;entryDx=0;entryDy=0;entryPerimeter=0;" parent="1" target="HMoE_AIVwohIHGqLsTAF-7" edge="1">
          <mxGeometry width="50" height="50" relative="1" as="geometry">
            <mxPoint x="166" y="86" as="sourcePoint" />
            <mxPoint x="189" y="28" as="targetPoint" />
            <Array as="points">
              <mxPoint x="166" y="29" />
            </Array>
          </mxGeometry>
        </mxCell>
        <mxCell id="HMoE_AIVwohIHGqLsTAF-52" value="" style="endArrow=classic;html=1;rounded=1;strokeColor=default;align=center;verticalAlign=middle;fontFamily=Helvetica;fontSize=11;fontColor=default;labelBackgroundColor=default;entryX=0.003;entryY=0.537;entryDx=0;entryDy=0;entryPerimeter=0;" parent="1" target="HMoE_AIVwohIHGqLsTAF-31" edge="1">
          <mxGeometry width="50" height="50" relative="1" as="geometry">
            <mxPoint x="166" y="85" as="sourcePoint" />
            <mxPoint x="193" y="142" as="targetPoint" />
            <Array as="points">
              <mxPoint x="166" y="141" />
            </Array>
          </mxGeometry>
        </mxCell>
        <mxCell id="HMoE_AIVwohIHGqLsTAF-64" value="" style="endArrow=none;html=1;rounded=1;strokeColor=default;align=center;verticalAlign=middle;fontFamily=Helvetica;fontSize=11;fontColor=default;labelBackgroundColor=default;entryX=0.423;entryY=1.002;entryDx=0;entryDy=0;entryPerimeter=0;edgeStyle=orthogonalEdgeStyle;endFill=0;" parent="1" edge="1">
          <mxGeometry width="50" height="50" relative="1" as="geometry">
            <mxPoint x="88" y="179" as="sourcePoint" />
            <mxPoint x="532.0369999999999" y="86.56" as="targetPoint" />
          </mxGeometry>
        </mxCell>
        <mxCell id="HMoE_AIVwohIHGqLsTAF-66" value="&lt;font style=&quot;font-size: 24px;&quot;&gt;-&lt;/font&gt;" style="text;strokeColor=none;align=center;fillColor=none;html=1;verticalAlign=middle;whiteSpace=wrap;rounded=0;" parent="1" vertex="1">
          <mxGeometry x="71" y="108" width="16" height="30" as="geometry" />
        </mxCell>
        <mxCell id="HMoE_AIVwohIHGqLsTAF-72" value="&lt;span style=&quot;font-size: 18px; white-space: nowrap; background-color: rgb(255, 255, 255);&quot;&gt;e(t)&lt;/span&gt;" style="text;strokeColor=none;align=center;fillColor=none;html=1;verticalAlign=middle;whiteSpace=wrap;rounded=0;" parent="1" vertex="1">
          <mxGeometry x="133" y="56.5" width="19" height="30" as="geometry" />
        </mxCell>
        <mxCell id="HMoE_AIVwohIHGqLsTAF-73" value="" style="endArrow=classic;html=1;rounded=1;strokeColor=default;align=center;verticalAlign=middle;fontFamily=Helvetica;fontSize=11;fontColor=default;labelBackgroundColor=default;exitX=1;exitY=0.513;exitDx=0;exitDy=0;exitPerimeter=0;targetPerimeterSpacing=0;" parent="1" edge="1">
          <mxGeometry width="50" height="50" relative="1" as="geometry">
            <mxPoint x="388" y="86" as="sourcePoint" />
            <mxPoint x="434" y="86" as="targetPoint" />
          </mxGeometry>
        </mxCell>
        <mxCell id="HMoE_AIVwohIHGqLsTAF-74" value="被控对象" style="rounded=1;whiteSpace=wrap;html=1;shadow=0;glass=0;fillColor=#d5e8d4;strokeColor=#82b366;" parent="1" vertex="1">
          <mxGeometry x="434" y="70" width="70" height="33" as="geometry" />
        </mxCell>
        <mxCell id="HMoE_AIVwohIHGqLsTAF-75" value="&lt;span style=&quot;font-size: 18px; white-space: nowrap; background-color: rgb(255, 255, 255);&quot;&gt;u(t)&lt;/span&gt;" style="text;strokeColor=none;align=center;fillColor=none;html=1;verticalAlign=middle;whiteSpace=wrap;rounded=0;" parent="1" vertex="1">
          <mxGeometry x="398" y="56.5" width="19" height="30" as="geometry" />
        </mxCell>
        <mxCell id="HMoE_AIVwohIHGqLsTAF-76" value="" style="endArrow=classic;html=1;rounded=1;strokeColor=default;align=center;verticalAlign=middle;fontFamily=Helvetica;fontSize=11;fontColor=default;labelBackgroundColor=default;exitX=1;exitY=0.513;exitDx=0;exitDy=0;exitPerimeter=0;targetPerimeterSpacing=0;" parent="1" edge="1">
          <mxGeometry width="50" height="50" relative="1" as="geometry">
            <mxPoint x="504" y="86" as="sourcePoint" />
            <mxPoint x="560" y="86" as="targetPoint" />
          </mxGeometry>
        </mxCell>
        <mxCell id="HMoE_AIVwohIHGqLsTAF-77" value="&lt;span style=&quot;font-size: 18px; white-space: nowrap; background-color: rgb(255, 255, 255);&quot;&gt;y(t)&lt;/span&gt;" style="text;strokeColor=none;align=center;fillColor=none;html=1;verticalAlign=middle;whiteSpace=wrap;rounded=0;" parent="1" vertex="1">
          <mxGeometry x="515" y="56.5" width="19" height="30" as="geometry" />
        </mxCell>
        <mxCell id="HMoE_AIVwohIHGqLsTAF-79" value="" style="endArrow=classic;html=1;rounded=0;entryX=0.467;entryY=1.009;entryDx=0;entryDy=0;entryPerimeter=0;" parent="1" target="HMoE_AIVwohIHGqLsTAF-29" edge="1">
          <mxGeometry width="50" height="50" relative="1" as="geometry">
            <mxPoint x="92" y="179" as="sourcePoint" />
            <mxPoint x="193" y="121" as="targetPoint" />
            <Array as="points">
              <mxPoint x="88" y="179" />
            </Array>
          </mxGeometry>
        </mxCell>
        <mxCell id="HMoE_AIVwohIHGqLsTAF-57" value="" style="endArrow=none;html=1;rounded=1;strokeColor=default;align=center;verticalAlign=middle;fontFamily=Helvetica;fontSize=11;fontColor=default;labelBackgroundColor=default;targetPerimeterSpacing=0;entryX=1.005;entryY=0.424;entryDx=0;entryDy=0;entryPerimeter=0;startArrow=classic;startFill=1;endFill=0;" parent="1" target="HMoE_AIVwohIHGqLsTAF-30" edge="1">
          <mxGeometry width="50" height="50" relative="1" as="geometry">
            <mxPoint x="328" y="83" as="sourcePoint" />
            <mxPoint x="294" y="83" as="targetPoint" />
          </mxGeometry>
        </mxCell>
        <mxCell id="HMoE_AIVwohIHGqLsTAF-58" value="" style="endArrow=none;html=1;rounded=1;strokeColor=default;align=center;verticalAlign=middle;fontFamily=Helvetica;fontSize=11;fontColor=default;labelBackgroundColor=default;exitX=0.48;exitY=0.006;exitDx=0;exitDy=0;exitPerimeter=0;entryX=0.997;entryY=0.424;entryDx=0;entryDy=0;entryPerimeter=0;endFill=0;startArrow=classic;startFill=1;" parent="1" source="HMoE_AIVwohIHGqLsTAF-33" target="HMoE_AIVwohIHGqLsTAF-7" edge="1">
          <mxGeometry width="50" height="50" relative="1" as="geometry">
            <mxPoint x="320" y="83" as="sourcePoint" />
            <mxPoint x="295" y="27" as="targetPoint" />
            <Array as="points">
              <mxPoint x="357" y="26" />
            </Array>
          </mxGeometry>
        </mxCell>
        <mxCell id="HMoE_AIVwohIHGqLsTAF-81" value="" style="endArrow=none;html=1;rounded=1;strokeColor=default;align=center;verticalAlign=middle;fontFamily=Helvetica;fontSize=11;fontColor=default;labelBackgroundColor=default;exitX=0.48;exitY=0.006;exitDx=0;exitDy=0;exitPerimeter=0;entryX=1.002;entryY=0.595;entryDx=0;entryDy=0;entryPerimeter=0;startArrow=classic;startFill=1;endFill=0;" parent="1" target="HMoE_AIVwohIHGqLsTAF-31" edge="1">
          <mxGeometry width="50" height="50" relative="1" as="geometry">
            <mxPoint x="357" y="113.5" as="sourcePoint" />
            <mxPoint x="293" y="144.5" as="targetPoint" />
            <Array as="points">
              <mxPoint x="357" y="144.5" />
            </Array>
          </mxGeometry>
        </mxCell>
        <mxCell id="HMoE_AIVwohIHGqLsTAF-82" value="&lt;font style=&quot;font-size: 24px;&quot;&gt;+&lt;/font&gt;" style="text;strokeColor=none;align=center;fillColor=none;html=1;verticalAlign=middle;whiteSpace=wrap;rounded=0;" parent="1" vertex="1">
          <mxGeometry x="349" y="52" width="16" height="30" as="geometry" />
        </mxCell>
        <mxCell id="HMoE_AIVwohIHGqLsTAF-84" value="&lt;font style=&quot;font-size: 24px;&quot;&gt;+&lt;/font&gt;" style="text;strokeColor=none;align=center;fillColor=none;html=1;verticalAlign=middle;whiteSpace=wrap;rounded=0;" parent="1" vertex="1">
          <mxGeometry x="349" y="87" width="16" height="30" as="geometry" />
        </mxCell>
        <mxCell id="HMoE_AIVwohIHGqLsTAF-85" value="&lt;font style=&quot;font-size: 24px;&quot;&gt;+&lt;/font&gt;" style="text;strokeColor=none;align=center;fillColor=none;html=1;verticalAlign=middle;whiteSpace=wrap;rounded=0;" parent="1" vertex="1">
          <mxGeometry x="331" y="68" width="16" height="30" as="geometry" />
        </mxCell>
        <mxCell id="HMoE_AIVwohIHGqLsTAF-92" value="传统PID框图" style="text;strokeColor=none;align=center;fillColor=none;html=1;verticalAlign=middle;whiteSpace=wrap;rounded=0;" parent="1" vertex="1">
          <mxGeometry x="157" y="189" width="197" height="30" as="geometry" />
        </mxCell>
        <mxCell id="2m38x5qAf2H3qzzra7lC-1" value="" style="endArrow=classic;html=1;rounded=1;entryX=-0.017;entryY=0.501;entryDx=0;entryDy=0;entryPerimeter=0;" parent="1" target="2m38x5qAf2H3qzzra7lC-3" edge="1">
          <mxGeometry width="50" height="50" relative="1" as="geometry">
            <mxPoint x="15" y="331" as="sourcePoint" />
            <mxPoint x="60" y="330.93" as="targetPoint" />
          </mxGeometry>
        </mxCell>
        <mxCell id="2m38x5qAf2H3qzzra7lC-2" value="比例" style="rounded=1;whiteSpace=wrap;html=1;shadow=0;glass=0;fillColor=#dae8fc;strokeColor=#6c8ebf;" parent="1" vertex="1">
          <mxGeometry x="208" y="258" width="100" height="33" as="geometry" />
        </mxCell>
        <mxCell id="2m38x5qAf2H3qzzra7lC-3" value="" style="verticalLabelPosition=bottom;verticalAlign=top;html=1;shape=mxgraph.flowchart.or;rounded=1;fillColor=#fff2cc;strokeColor=#d6b656;" parent="1" vertex="1">
          <mxGeometry x="60" y="302.5" width="60" height="57" as="geometry" />
        </mxCell>
        <mxCell id="2m38x5qAf2H3qzzra7lC-4" value="积分" style="rounded=1;whiteSpace=wrap;html=1;fillColor=#dae8fc;strokeColor=#6c8ebf;" parent="1" vertex="1">
          <mxGeometry x="208" y="315" width="100" height="33" as="geometry" />
        </mxCell>
        <mxCell id="2m38x5qAf2H3qzzra7lC-6" value="" style="verticalLabelPosition=bottom;verticalAlign=top;html=1;shape=mxgraph.flowchart.or;rounded=1;fillColor=#fff2cc;strokeColor=#d6b656;" parent="1" vertex="1">
          <mxGeometry x="328" y="302.5" width="60" height="57" as="geometry" />
        </mxCell>
        <mxCell id="2m38x5qAf2H3qzzra7lC-7" value="&lt;font style=&quot;font-size: 24px;&quot;&gt;+&lt;/font&gt;" style="text;strokeColor=none;align=center;fillColor=none;html=1;verticalAlign=middle;whiteSpace=wrap;rounded=0;" parent="1" vertex="1">
          <mxGeometry x="40" y="304" width="16" height="30" as="geometry" />
        </mxCell>
        <mxCell id="2m38x5qAf2H3qzzra7lC-8" value="&lt;span style=&quot;font-size: 18px; white-space: nowrap; background-color: rgb(255, 255, 255);&quot;&gt;r(t)&lt;/span&gt;" style="text;strokeColor=none;align=center;fillColor=none;html=1;verticalAlign=middle;whiteSpace=wrap;rounded=0;" parent="1" vertex="1">
          <mxGeometry x="15" y="302.5" width="19" height="30" as="geometry" />
        </mxCell>
        <mxCell id="2m38x5qAf2H3qzzra7lC-9" value="" style="endArrow=classic;html=1;rounded=1;strokeColor=default;align=center;verticalAlign=middle;fontFamily=Helvetica;fontSize=11;fontColor=default;labelBackgroundColor=default;exitX=1;exitY=0.5;exitDx=0;exitDy=0;exitPerimeter=0;targetPerimeterSpacing=0;entryX=-0.003;entryY=0.489;entryDx=0;entryDy=0;entryPerimeter=0;" parent="1" source="2m38x5qAf2H3qzzra7lC-3" target="2m38x5qAf2H3qzzra7lC-4" edge="1">
          <mxGeometry width="50" height="50" relative="1" as="geometry">
            <mxPoint x="150" y="367" as="sourcePoint" />
            <mxPoint x="200" y="317" as="targetPoint" />
          </mxGeometry>
        </mxCell>
        <mxCell id="2m38x5qAf2H3qzzra7lC-10" value="" style="endArrow=classic;html=1;rounded=1;strokeColor=default;align=center;verticalAlign=middle;fontFamily=Helvetica;fontSize=11;fontColor=default;labelBackgroundColor=default;entryX=-0.001;entryY=0.516;entryDx=0;entryDy=0;entryPerimeter=0;" parent="1" target="2m38x5qAf2H3qzzra7lC-2" edge="1">
          <mxGeometry width="50" height="50" relative="1" as="geometry">
            <mxPoint x="166" y="332" as="sourcePoint" />
            <mxPoint x="189" y="274" as="targetPoint" />
            <Array as="points">
              <mxPoint x="166" y="275" />
            </Array>
          </mxGeometry>
        </mxCell>
        <mxCell id="2m38x5qAf2H3qzzra7lC-13" value="&lt;font style=&quot;font-size: 24px;&quot;&gt;-&lt;/font&gt;" style="text;strokeColor=none;align=center;fillColor=none;html=1;verticalAlign=middle;whiteSpace=wrap;rounded=0;" parent="1" vertex="1">
          <mxGeometry x="86" y="354" width="16" height="30" as="geometry" />
        </mxCell>
        <mxCell id="2m38x5qAf2H3qzzra7lC-14" value="&lt;span style=&quot;font-size: 18px; white-space: nowrap; background-color: rgb(255, 255, 255);&quot;&gt;e(t)&lt;/span&gt;" style="text;strokeColor=none;align=center;fillColor=none;html=1;verticalAlign=middle;whiteSpace=wrap;rounded=0;" parent="1" vertex="1">
          <mxGeometry x="133" y="302.5" width="19" height="30" as="geometry" />
        </mxCell>
        <mxCell id="2m38x5qAf2H3qzzra7lC-15" value="" style="endArrow=classic;html=1;rounded=1;strokeColor=default;align=center;verticalAlign=middle;fontFamily=Helvetica;fontSize=11;fontColor=default;labelBackgroundColor=default;exitX=1;exitY=0.513;exitDx=0;exitDy=0;exitPerimeter=0;targetPerimeterSpacing=0;" parent="1" edge="1">
          <mxGeometry width="50" height="50" relative="1" as="geometry">
            <mxPoint x="388" y="332" as="sourcePoint" />
            <mxPoint x="434" y="332" as="targetPoint" />
          </mxGeometry>
        </mxCell>
        <mxCell id="2m38x5qAf2H3qzzra7lC-16" value="被控对象" style="rounded=1;whiteSpace=wrap;html=1;shadow=0;glass=0;fillColor=#d5e8d4;strokeColor=#82b366;" parent="1" vertex="1">
          <mxGeometry x="434" y="316" width="70" height="33" as="geometry" />
        </mxCell>
        <mxCell id="2m38x5qAf2H3qzzra7lC-17" value="&lt;span style=&quot;font-size: 18px; white-space: nowrap; background-color: rgb(255, 255, 255);&quot;&gt;u(t)&lt;/span&gt;" style="text;strokeColor=none;align=center;fillColor=none;html=1;verticalAlign=middle;whiteSpace=wrap;rounded=0;" parent="1" vertex="1">
          <mxGeometry x="398" y="302.5" width="19" height="30" as="geometry" />
        </mxCell>
        <mxCell id="2m38x5qAf2H3qzzra7lC-18" value="" style="endArrow=classic;html=1;rounded=1;strokeColor=default;align=center;verticalAlign=middle;fontFamily=Helvetica;fontSize=11;fontColor=default;labelBackgroundColor=default;exitX=1;exitY=0.513;exitDx=0;exitDy=0;exitPerimeter=0;targetPerimeterSpacing=0;" parent="1" edge="1">
          <mxGeometry width="50" height="50" relative="1" as="geometry">
            <mxPoint x="504" y="332" as="sourcePoint" />
            <mxPoint x="560" y="332" as="targetPoint" />
          </mxGeometry>
        </mxCell>
        <mxCell id="2m38x5qAf2H3qzzra7lC-19" value="&lt;span style=&quot;font-size: 18px; white-space: nowrap; background-color: rgb(255, 255, 255);&quot;&gt;y(t)&lt;/span&gt;" style="text;strokeColor=none;align=center;fillColor=none;html=1;verticalAlign=middle;whiteSpace=wrap;rounded=0;" parent="1" vertex="1">
          <mxGeometry x="515" y="302.5" width="19" height="30" as="geometry" />
        </mxCell>
        <mxCell id="2m38x5qAf2H3qzzra7lC-21" value="" style="endArrow=none;html=1;rounded=1;strokeColor=default;align=center;verticalAlign=middle;fontFamily=Helvetica;fontSize=11;fontColor=default;labelBackgroundColor=default;targetPerimeterSpacing=0;entryX=1.005;entryY=0.424;entryDx=0;entryDy=0;entryPerimeter=0;startArrow=classic;startFill=1;endFill=0;" parent="1" target="2m38x5qAf2H3qzzra7lC-4" edge="1">
          <mxGeometry width="50" height="50" relative="1" as="geometry">
            <mxPoint x="328" y="329" as="sourcePoint" />
            <mxPoint x="294" y="329" as="targetPoint" />
          </mxGeometry>
        </mxCell>
        <mxCell id="2m38x5qAf2H3qzzra7lC-22" value="" style="endArrow=none;html=1;rounded=1;strokeColor=default;align=center;verticalAlign=middle;fontFamily=Helvetica;fontSize=11;fontColor=default;labelBackgroundColor=default;exitX=0.48;exitY=0.006;exitDx=0;exitDy=0;exitPerimeter=0;entryX=0.997;entryY=0.424;entryDx=0;entryDy=0;entryPerimeter=0;endFill=0;startArrow=classic;startFill=1;" parent="1" source="2m38x5qAf2H3qzzra7lC-6" target="2m38x5qAf2H3qzzra7lC-2" edge="1">
          <mxGeometry width="50" height="50" relative="1" as="geometry">
            <mxPoint x="320" y="329" as="sourcePoint" />
            <mxPoint x="295" y="273" as="targetPoint" />
            <Array as="points">
              <mxPoint x="357" y="272" />
            </Array>
          </mxGeometry>
        </mxCell>
        <mxCell id="2m38x5qAf2H3qzzra7lC-24" value="&lt;font style=&quot;font-size: 24px;&quot;&gt;+&lt;/font&gt;" style="text;strokeColor=none;align=center;fillColor=none;html=1;verticalAlign=middle;whiteSpace=wrap;rounded=0;" parent="1" vertex="1">
          <mxGeometry x="349" y="298" width="16" height="30" as="geometry" />
        </mxCell>
        <mxCell id="2m38x5qAf2H3qzzra7lC-26" value="&lt;font style=&quot;font-size: 24px;&quot;&gt;+&lt;/font&gt;" style="text;strokeColor=none;align=center;fillColor=none;html=1;verticalAlign=middle;whiteSpace=wrap;rounded=0;" parent="1" vertex="1">
          <mxGeometry x="331" y="314" width="16" height="30" as="geometry" />
        </mxCell>
        <mxCell id="2m38x5qAf2H3qzzra7lC-27" value="PI控制框图" style="text;strokeColor=none;align=center;fillColor=none;html=1;verticalAlign=middle;whiteSpace=wrap;rounded=0;" parent="1" vertex="1">
          <mxGeometry x="167" y="430" width="197" height="30" as="geometry" />
        </mxCell>
        <mxCell id="2m38x5qAf2H3qzzra7lC-28" value="采样测量" style="rounded=1;whiteSpace=wrap;html=1;fillColor=#f8cecc;strokeColor=#b85450;" parent="1" vertex="1">
          <mxGeometry x="208" y="380" width="100" height="33" as="geometry" />
        </mxCell>
        <mxCell id="2m38x5qAf2H3qzzra7lC-29" value="" style="endArrow=none;html=1;rounded=1;strokeColor=default;align=center;verticalAlign=middle;fontFamily=Helvetica;fontSize=11;fontColor=default;labelBackgroundColor=default;entryX=0.423;entryY=1.002;entryDx=0;entryDy=0;entryPerimeter=0;edgeStyle=orthogonalEdgeStyle;endFill=0;exitX=1;exitY=0.5;exitDx=0;exitDy=0;startArrow=classic;startFill=1;" parent="1" source="2m38x5qAf2H3qzzra7lC-28" edge="1">
          <mxGeometry width="50" height="50" relative="1" as="geometry">
            <mxPoint x="82" y="424.44" as="sourcePoint" />
            <mxPoint x="526.0369999999999" y="332" as="targetPoint" />
          </mxGeometry>
        </mxCell>
        <mxCell id="2m38x5qAf2H3qzzra7lC-31" value="" style="endArrow=classic;html=1;rounded=1;entryX=1;entryY=0.25;entryDx=0;entryDy=0;exitX=0;exitY=0.5;exitDx=0;exitDy=0;curved=0;" parent="1" source="2m38x5qAf2H3qzzra7lC-28" edge="1">
          <mxGeometry width="50" height="50" relative="1" as="geometry">
            <mxPoint x="156" y="409" as="sourcePoint" />
            <mxPoint x="85" y="359.5" as="targetPoint" />
            <Array as="points">
              <mxPoint x="85" y="397" />
            </Array>
          </mxGeometry>
        </mxCell>
      </root>
    </mxGraphModel>
  </diagram>
</mxfile>
